<?xml version="1.0" encoding="UTF-8"?><svg id="Layer_1" data-name="Layer 1" xmlns="http://www.w3.org/2000/svg" viewBox="0 0 313.26331 263.60102" x="0px" y="0px" width="314px" height="264px" version="1.1" xmlns:xlink="http://www.w3.org/1999/xlink">
  
  <g>
    <path d="M55.14129,263.601c-.06347,0-.127-.001-.19043-.002-8.64453-.16113-17.69921-1.76855-25.34765-12.34472-6.23731-8.62305-7.71192-18.8125-8.30078-26.72657-.89942-12.11328-.15235-24.10449.56836-35.70117.59765-9.60351,1.16211-18.67383.86425-27.76953-.18066-5.50293-.72265-11.76074-3.37207-16.44531-2.05078-3.626-5.80761-6.165-8.88672-6.00293a10,10,0,0,1-1.457-19.94043c5.29688-.52246,9.70215-5.48731,11.71875-10.17676,2.78711-6.48144,3.0625-14.50488,3.32813-22.26465l1.833-53.57226c.1914-5.582.45214-13.22754,4.33984-20.14844,4.53418-8.0791,14.71973-14.53516,25.40625-11.251a10.00025,10.00025,0,0,1-5.71777,19.165,4.1932,4.1932,0,0,0-2.25,1.87793c-1.50391,2.67774-1.64942,6.92871-1.79,11.04l-1.833,53.57324c-.31445,9.16114-.66992,19.543-4.94336,29.48047a40.1929,40.1929,0,0,1-7.459,11.52344,33.61649,33.61649,0,0,1,5.12011,6.85156c4.78125,8.45313,5.69141,17.70215,5.95117,25.63379.33008,10.0459-.29,20.02148-.89062,29.668-.71094,11.42969-1.38281,22.22558-.585,32.97754.39258,5.28222,1.2666,11.93164,4.56055,16.4873,2.11328,2.92188,3.39941,3.95508,9.51562,4.06934a9.9999,9.9999,0,0,1-.18262,19.99805Z" style="
        fill: #0699c0;
      "/>
    <path d="M255.14325,263.00922c-.16114,0-.32227,0-.48243-.001a10.0001,10.0001,0,0,1,.06348-20c.12793,0,.27246.001.40723.001,5.83594,0,7.14258-1.01758,9.30078-3.83985,3.4209-4.47656,4.47656-11.10351,5.01367-16.37695,1.0918-10.72851.71484-21.53808.31641-32.98242-.33594-9.6582-.6836-19.64453-.0791-29.67773.47753-7.92383,1.64062-17.14454,6.64746-25.46875a33.64,33.64,0,0,1,5.30859-6.71973,40.12215,40.12215,0,0,1-7.1416-11.709c-4.00293-10.0498-4.07324-20.43652-4.13574-29.60058l-.36914-53.59961c-.02735-4.11328-.05664-8.36621-1.4834-11.0752a4.15466,4.15466,0,0,0-2.18164-1.91992A10.00037,10.00037,0,0,1,261.09637.73578c10.78516-3.01855,20.78809,3.7041,25.10742,11.90137,3.69922,7.02246,3.751,14.67383,3.78907,20.26074l.36914,53.59863c.05273,7.76172.10742,15.78614,2.71582,22.33692,1.88476,4.73047,6.1455,9.79687,11.418,10.45215a10.00015,10.00015,0,0,1-1.96094,19.89746c-3.08008-.23438-6.91113,2.209-9.06543,5.78906-2.77832,4.61816-3.49121,10.86328-3.82324,16.3623-.54688,9.085-.23047,18.165.10449,27.7793.4043,11.61133.82226,23.61816-.4082,35.7041-.80372,7.89356-2.55469,18.03809-9.02149,26.499C272.53875,261.49359,263.63934,263.00922,255.14325,263.00922Z" style="
        fill: #0699c0;
      "/>
    <rect x="60.51998" y="39.35517" width="82.63636" height="21.56428" rx="4" style="
        fill: #e5a024;
      "/>
    <rect x="126.51998" y="79.92846" width="123.27273" height="21.56428" rx="4" style="
        fill: #3b301b;
      "/>
    <rect x="60.51998" y="79.92846" width="47.72727" height="21.56428" rx="4" style="
        fill: #cf4327;
      "/>
    <rect x="161.42907" y="39.35517" width="43.09091" height="21.56428" rx="4" style="
        fill: #cf4327;
      "/>
    <rect x="222.51998" y="39.35517" width="27.27273" height="21.56428" rx="4" style="
        fill: #3b301b;
      "/>
    <rect x="60.51998" y="159.88291" width="82.63636" height="21.56428" rx="4" style="
        fill: #e5a024;
      "/>
    <rect x="126.51998" y="200.4562" width="123.27273" height="21.56428" rx="4" style="
        fill: #3b301b;
      "/>
    <rect x="60.51998" y="200.4562" width="47.72727" height="21.56428" rx="4" style="
        fill: #cf4327;
      "/>
    <rect x="161.42907" y="159.88291" width="43.09091" height="21.56428" rx="4" style="
        fill: #e5a024;
      "/>
    <rect x="222.51998" y="159.88291" width="27.27273" height="21.56428" rx="4" style="
        fill: #cf4327;
      "/>
    <rect x="60.51998" y="120.66863" width="56.86364" height="21.56428" rx="4" style="
        fill: #3b301b;
      "/>
    <rect x="191.01998" y="120.66863" width="56.86364" height="21.56428" rx="4" style="
        fill: #cf4327;
      "/>
    <rect x="135.65635" y="120.66863" width="37.09091" height="21.56428" rx="4" style="
        fill: #e5a024;
      "/>
  </g>
</svg>